<svg width="640" height="360" viewBox="0 0 640 360" fill="none" xmlns="http://www.w3.org/2000/svg">
  <defs>
    <linearGradient id="flow-blue" x1="0" y1="0" x2="1" y2="1">
      <stop offset="0" stop-color="#1D3E6F" />
      <stop offset="1" stop-color="#0ABDC6" />
    </linearGradient>
    <linearGradient id="flow-gold" x1="0" y1="0" x2="1" y2="1">
      <stop offset="0" stop-color="#F4C95D" />
      <stop offset="1" stop-color="#FFDF99" />
    </linearGradient>
  </defs>
  <rect width="640" height="360" rx="32" fill="#051629" />
  <circle cx="160" cy="120" r="80" fill="url(#flow-blue)" opacity="0.6" />
  <circle cx="480" cy="240" r="90" fill="url(#flow-gold)" opacity="0.7" />
  <path
    d="M120 260C200 220 320 220 420 260"
    stroke="#12D5C4"
    stroke-width="6"
    stroke-linecap="round"
    stroke-dasharray="14 12"
  />
  <path
    d="M220 80C300 120 420 120 520 80"
    stroke="#F4C95D"
    stroke-width="6"
    stroke-linecap="round"
    stroke-dasharray="12 10"
  />
  <rect x="90" y="220" width="90" height="60" rx="12" fill="#0E2947" stroke="#12D5C4" stroke-width="2" />
  <rect x="460" y="70" width="100" height="70" rx="14" fill="#1B2F4B" stroke="#F4C95D" stroke-width="2" />
  <text x="135" y="255" fill="#E2F6FF" font-family="Inter, sans-serif" font-size="14" text-anchor="middle">
    IMPORT
  </text>
  <text x="510" y="110" fill="#2B1700" font-family="Inter, sans-serif" font-size="14" text-anchor="middle" font-weight="600">
    EXPORT
  </text>
  <path d="M180 245L210 230" stroke="#12D5C4" stroke-width="4" stroke-linecap="round" marker-end="url(#arrow-teal)" />
  <path d="M430 110L460 95" stroke="#F4C95D" stroke-width="4" stroke-linecap="round" marker-end="url(#arrow-gold)" />
  <defs>
    <marker id="arrow-teal" markerWidth="8" markerHeight="8" refX="4" refY="4" orient="auto" markerUnits="strokeWidth">
      <path d="M0 0L8 4L0 8V0Z" fill="#12D5C4" />
    </marker>
    <marker id="arrow-gold" markerWidth="8" markerHeight="8" refX="4" refY="4" orient="auto" markerUnits="strokeWidth">
      <path d="M0 0L8 4L0 8V0Z" fill="#F4C95D" />
    </marker>
  </defs>
</svg>

